<svg width="29" height="28" viewBox="0 0 29 28" fill="none" xmlns="http://www.w3.org/2000/svg">
<path d="M4 11.6667V4.66667C4 4.33611 4.112 4.05922 4.336 3.836C4.56 3.61278 4.83689 3.50078 5.16667 3.5H12.1667C12.4972 3.5 12.7745 3.612 12.9985 3.836C13.2225 4.06 13.3341 4.33689 13.3333 4.66667V11.6667C13.3333 11.9972 13.2213 12.2745 12.9973 12.4985C12.7733 12.7225 12.4964 12.8341 12.1667 12.8333H5.16667C4.83611 12.8333 4.55922 12.7213 4.336 12.4973C4.11278 12.2733 4.00078 11.9964 4 11.6667ZM6.33333 10.5H11V5.83333H6.33333V10.5ZM4 23.3333V16.3333C4 16.0028 4.112 15.7259 4.336 15.5027C4.56 15.2794 4.83689 15.1674 5.16667 15.1667H12.1667C12.4972 15.1667 12.7745 15.2787 12.9985 15.5027C13.2225 15.7267 13.3341 16.0036 13.3333 16.3333V23.3333C13.3333 23.6639 13.2213 23.9412 12.9973 24.1652C12.7733 24.3892 12.4964 24.5008 12.1667 24.5H5.16667C4.83611 24.5 4.55922 24.388 4.336 24.164C4.11278 23.94 4.00078 23.6631 4 23.3333ZM6.33333 22.1667H11V17.5H6.33333V22.1667ZM15.6667 11.6667V4.66667C15.6667 4.33611 15.7787 4.05922 16.0027 3.836C16.2267 3.61278 16.5036 3.50078 16.8333 3.5H23.8333C24.1639 3.5 24.4412 3.612 24.6652 3.836C24.8892 4.06 25.0008 4.33689 25 4.66667V11.6667C25 11.9972 24.888 12.2745 24.664 12.4985C24.44 12.7225 24.1631 12.8341 23.8333 12.8333H16.8333C16.5028 12.8333 16.2259 12.7213 16.0027 12.4973C15.7794 12.2733 15.6674 11.9964 15.6667 11.6667ZM18 10.5H22.6667V5.83333H18V10.5ZM22.6667 24.5V22.1667H25V24.5H22.6667ZM15.6667 17.5V15.1667H18V17.5H15.6667ZM18 19.8333V17.5H20.3333V19.8333H18ZM15.6667 22.1667V19.8333H18V22.1667H15.6667ZM18 24.5V22.1667H20.3333V24.5H18ZM20.3333 22.1667V19.8333H22.6667V22.1667H20.3333ZM20.3333 17.5V15.1667H22.6667V17.5H20.3333ZM22.6667 19.8333V17.5H25V19.8333H22.6667Z" fill="#313131"/>
</svg>
