<svg width="15" height="19" viewBox="0 0 15 19" fill="none" xmlns="http://www.w3.org/2000/svg">
<path d="M8.75022 0.861816C10.269 0.861816 11.5002 2.09303 11.5002 3.61182V4.0542C12.2954 4.13121 13.0841 4.23122 13.8655 4.35303C14.2747 4.41682 14.5551 4.80028 14.4914 5.20947C14.4276 5.61867 14.0442 5.89912 13.635 5.83545C13.5856 5.82775 13.536 5.81953 13.4865 5.81201L12.6448 16.3315C12.5302 17.7605 11.3371 18.8618 9.90354 18.8618H5.0969C3.66331 18.8618 2.47024 17.7605 2.35569 16.3315L1.51389 5.81201C1.46456 5.81951 1.41473 5.82777 1.36545 5.83545C0.956346 5.89899 0.572792 5.6186 0.509009 5.20947C0.445357 4.8003 0.725799 4.41682 1.13499 4.35303C1.91637 4.23121 2.705 4.13121 3.50022 4.0542V3.61182C3.50022 2.09303 4.73144 0.861816 6.25022 0.861816H8.75022ZM5.30002 6.86279C4.91217 6.87847 4.60455 7.18564 4.58127 7.56494V7.64209L4.88108 15.1421C4.89779 15.5558 5.24659 15.8774 5.66038 15.8608C6.07421 15.8442 6.39666 15.4954 6.3801 15.0815L6.07932 7.58154L6.07249 7.50537C6.01897 7.12904 5.68803 6.84727 5.30002 6.86279ZM9.70042 6.86279C9.28663 6.84624 8.93783 7.16781 8.92112 7.58154L8.62131 15.0815C8.60476 15.4953 8.92632 15.8441 9.34006 15.8608C9.75384 15.8774 10.1026 15.5558 10.1194 15.1421L10.4201 7.64209C10.4367 7.22825 10.1142 6.87942 9.70042 6.86279ZM6.25022 2.36182C5.55986 2.36182 5.00022 2.92146 5.00022 3.61182V3.93701C5.82725 3.88725 6.66083 3.86182 7.50022 3.86182C8.33958 3.86182 9.17322 3.88726 10.0002 3.93701V3.61182C10.0002 2.92146 9.44058 2.36182 8.75022 2.36182H6.25022Z" fill="#D38DD8"/>
</svg>
