<svg width="78" height="78" viewBox="0 0 78 78" fill="none" xmlns="http://www.w3.org/2000/svg">
<mask id="mask0_1006_6255" style="mask-type:alpha" maskUnits="userSpaceOnUse" x="0" y="0" width="78" height="78">
<rect width="78" height="78" fill="#D9D9D9"/>
</mask>
<g mask="url(#mask0_1006_6255)">
<path d="M31.0366 49.2375L58.5803 21.6938C59.2303 21.0438 59.9887 20.7188 60.8553 20.7188C61.722 20.7188 62.4803 21.0438 63.1303 21.6938C63.7803 22.3438 64.1053 23.1156 64.1053 24.0094C64.1053 24.9031 63.7803 25.675 63.1303 26.325L33.3116 56.225C32.6616 56.875 31.9033 57.2 31.0366 57.2C30.1699 57.2 29.4116 56.875 28.7616 56.225L14.7866 42.25C14.1366 41.6 13.8251 40.8281 13.8522 39.9344C13.8793 39.0406 14.2178 38.2688 14.8678 37.6188C15.5178 36.9688 16.2897 36.6438 17.1835 36.6438C18.0772 36.6438 18.8491 36.9688 19.4991 37.6188L31.0366 49.2375Z" fill="#FF1493"/>
</g>
</svg>
