<svg width="27" height="30" viewBox="0 0 27 30" fill="none" xmlns="http://www.w3.org/2000/svg">
<path d="M0.166748 25.8333V10.8333C0.166748 10.3056 0.284804 9.80556 0.520915 9.33333C0.757026 8.86111 1.08341 8.47222 1.50008 8.16667L11.5001 0.666667C12.0834 0.222222 12.7501 0 13.5001 0C14.2501 0 14.9167 0.222222 15.5001 0.666667L25.5001 8.16667C25.9167 8.47222 26.2431 8.86111 26.4792 9.33333C26.7154 9.80556 26.8334 10.3056 26.8334 10.8333V25.8333C26.8334 26.75 26.507 27.5347 25.8542 28.1875C25.2015 28.8403 24.4167 29.1667 23.5001 29.1667H18.5001C18.0279 29.1667 17.632 29.0069 17.3126 28.6875C16.9931 28.3681 16.8334 27.9722 16.8334 27.5V19.1667C16.8334 18.6944 16.6737 18.2986 16.3542 17.9792C16.0348 17.6597 15.639 17.5 15.1667 17.5H11.8334C11.3612 17.5 10.9654 17.6597 10.6459 17.9792C10.3265 18.2986 10.1667 18.6944 10.1667 19.1667V27.5C10.1667 27.9722 10.007 28.3681 9.68758 28.6875C9.36814 29.0069 8.9723 29.1667 8.50008 29.1667H3.50008C2.58341 29.1667 1.79869 28.8403 1.14591 28.1875C0.493137 27.5347 0.166748 26.75 0.166748 25.8333Z" fill="white"/>
</svg>
