<svg width="18" height="18" viewBox="0 0 18 18" fill="none" xmlns="http://www.w3.org/2000/svg">
<g clip-path="url(#clip0_1006_6222)">
<path d="M7.49991 9.74997C7.822 10.1806 8.23292 10.5369 8.70482 10.7947C9.17671 11.0525 9.69854 11.2058 10.2349 11.2442C10.7713 11.2826 11.3096 11.2053 11.8134 11.0173C12.3172 10.8294 12.7747 10.5353 13.1549 10.155L15.4049 7.90497C16.088 7.19772 16.466 6.25046 16.4574 5.26722C16.4489 4.28398 16.0545 3.34344 15.3592 2.64815C14.6639 1.95287 13.7234 1.55849 12.7402 1.54995C11.7569 1.5414 10.8097 1.91938 10.1024 2.60247L8.81241 3.88497M10.4999 8.24997C10.1778 7.81938 9.76689 7.46309 9.29499 7.20527C8.8231 6.94745 8.30127 6.79414 7.76492 6.75572C7.22856 6.71731 6.69022 6.7947 6.1864 6.98264C5.68258 7.17058 5.22507 7.46467 4.84491 7.84497L2.59491 10.095C1.91181 10.8022 1.53383 11.7495 1.54238 12.7327C1.55092 13.716 1.94531 14.6565 2.64059 15.3518C3.33587 16.0471 4.27641 16.4415 5.25965 16.45C6.24289 16.4585 7.19015 16.0806 7.89741 15.3975L9.17991 14.115" stroke="white" stroke-width="2" stroke-linecap="round" stroke-linejoin="round"/>
</g>
<defs>
<clipPath id="clip0_1006_6222">
<rect width="18" height="18" fill="white"/>
</clipPath>
</defs>
</svg>
