<svg width="12" height="13" viewBox="0 0 12 13" fill="none" xmlns="http://www.w3.org/2000/svg">
<mask id="mask0_891_12276" style="mask-type:alpha" maskUnits="userSpaceOnUse" x="0" y="0" width="12" height="13">
<rect y="0.75" width="12" height="12" fill="#D9D9D9"/>
</mask>
<g mask="url(#mask0_891_12276)">
<path d="M6 6.75C5.45 6.75 4.97917 6.55417 4.5875 6.1625C4.19583 5.77083 4 5.3 4 4.75C4 4.2 4.19583 3.72917 4.5875 3.3375C4.97917 2.94583 5.45 2.75 6 2.75C6.55 2.75 7.02083 2.94583 7.4125 3.3375C7.80417 3.72917 8 4.2 8 4.75C8 5.3 7.80417 5.77083 7.4125 6.1625C7.02083 6.55417 6.55 6.75 6 6.75ZM2 9.75V9.35C2 9.06667 2.07292 8.80625 2.21875 8.56875C2.36458 8.33125 2.55833 8.15 2.8 8.025C3.31667 7.76667 3.84167 7.57292 4.375 7.44375C4.90833 7.31458 5.45 7.25 6 7.25C6.55 7.25 7.09167 7.31458 7.625 7.44375C8.15833 7.57292 8.68333 7.76667 9.2 8.025C9.44167 8.15 9.63542 8.33125 9.78125 8.56875C9.92708 8.80625 10 9.06667 10 9.35V9.75C10 10.025 9.90208 10.2604 9.70625 10.4563C9.51042 10.6521 9.275 10.75 9 10.75H3C2.725 10.75 2.48958 10.6521 2.29375 10.4563C2.09792 10.2604 2 10.025 2 9.75Z" fill="#414643"/>
</g>
</svg>
