<svg width="19" height="18" viewBox="0 0 19 18" fill="none" xmlns="http://www.w3.org/2000/svg">
<mask id="mask0_641_25691" style="mask-type:alpha" maskUnits="userSpaceOnUse" x="0" y="0" width="19" height="18">
<rect x="0.276367" width="17.9297" height="17.9297" fill="#D9D9D9"/>
</mask>
<g mask="url(#mask0_641_25691)">
<path d="M9.24121 8.96484C8.41943 8.96484 7.71594 8.67224 7.13074 8.08704C6.54553 7.50183 6.25293 6.79834 6.25293 5.97656C6.25293 5.15479 6.54553 4.45129 7.13074 3.86609C7.71594 3.28088 8.41943 2.98828 9.24121 2.98828C10.063 2.98828 10.7665 3.28088 11.3517 3.86609C11.9369 4.45129 12.2295 5.15479 12.2295 5.97656C12.2295 6.79834 11.9369 7.50183 11.3517 8.08704C10.7665 8.67224 10.063 8.96484 9.24121 8.96484ZM3.26465 13.4473V12.8496C3.26465 12.4263 3.3736 12.0372 3.59149 11.6823C3.80939 11.3275 4.09888 11.0566 4.45996 10.8699C5.23193 10.4839 6.01636 10.1944 6.81323 10.0014C7.61011 9.80841 8.41943 9.71191 9.24121 9.71191C10.063 9.71191 10.8723 9.80841 11.6692 10.0014C12.4661 10.1944 13.2505 10.4839 14.0225 10.8699C14.3835 11.0566 14.673 11.3275 14.8909 11.6823C15.1088 12.0372 15.2178 12.4263 15.2178 12.8496V13.4473C15.2178 13.8582 15.0715 14.2099 14.7789 14.5025C14.4863 14.7951 14.1345 14.9414 13.7236 14.9414H4.75879C4.3479 14.9414 3.99615 14.7951 3.70355 14.5025C3.41095 14.2099 3.26465 13.8582 3.26465 13.4473Z" fill="white"/>
</g>
</svg>
