<svg width="30" height="29" viewBox="0 0 30 29" fill="none" xmlns="http://www.w3.org/2000/svg">
<g filter="url(#filter0_d_1565_11586)">
<circle cx="15" cy="14.8618" r="11.5" fill="#D38DD8"/>
<mask id="mask0_1565_11586" style="mask-type:alpha" maskUnits="userSpaceOnUse" x="6" y="6" width="18" height="18">
<rect x="6.63672" y="6.49805" width="16.7273" height="16.7273" fill="#D9D9D9"/>
</mask>
<g mask="url(#mask0_1565_11586)">
<path d="M14.3029 15.5592H10.8181C10.6206 15.5592 10.4551 15.4924 10.3215 15.3588C10.1879 15.2252 10.1211 15.0597 10.1211 14.8622C10.1211 14.6647 10.1879 14.4992 10.3215 14.3656C10.4551 14.232 10.6206 14.1652 10.8181 14.1652H14.3029V10.6804C14.3029 10.4829 14.3697 10.3174 14.5033 10.1838C14.6369 10.0502 14.8024 9.9834 14.9999 9.9834C15.1974 9.9834 15.3629 10.0502 15.4965 10.1838C15.6301 10.3174 15.6969 10.4829 15.6969 10.6804V14.1652H19.1817C19.3792 14.1652 19.5447 14.232 19.6783 14.3656C19.8119 14.4992 19.8787 14.6647 19.8787 14.8622C19.8787 15.0597 19.8119 15.2252 19.6783 15.3588C19.5447 15.4924 19.3792 15.5592 19.1817 15.5592H15.6969V19.044C15.6969 19.2415 15.6301 19.407 15.4965 19.5406C15.3629 19.6742 15.1974 19.741 14.9999 19.741C14.8024 19.741 14.6369 19.6742 14.5033 19.5406C14.3697 19.407 14.3029 19.2415 14.3029 19.044V15.5592Z" fill="#2B2D42"/>
</g>
</g>
<defs>
<filter id="filter0_d_1565_11586" x="0.886364" y="0.74818" width="28.2273" height="28.2273" filterUnits="userSpaceOnUse" color-interpolation-filters="sRGB">
<feFlood flood-opacity="0" result="BackgroundImageFix"/>
<feColorMatrix in="SourceAlpha" type="matrix" values="0 0 0 0 0 0 0 0 0 0 0 0 0 0 0 0 0 0 127 0" result="hardAlpha"/>
<feOffset/>
<feGaussianBlur stdDeviation="1.30682"/>
<feComposite in2="hardAlpha" operator="out"/>
<feColorMatrix type="matrix" values="0 0 0 0 0 0 0 0 0 0 0 0 0 0 0 0 0 0 0.25 0"/>
<feBlend mode="normal" in2="BackgroundImageFix" result="effect1_dropShadow_1565_11586"/>
<feBlend mode="normal" in="SourceGraphic" in2="effect1_dropShadow_1565_11586" result="shape"/>
</filter>
</defs>
</svg>
