<svg width="24" height="24" viewBox="0 0 24 24" fill="none" xmlns="http://www.w3.org/2000/svg">
<circle cx="12" cy="12" r="12" fill="#00FFFF"/>
<path d="M14.5823 8.992H10.8143L10.6223 11.8H10.7063C10.7943 11.624 10.8903 11.46 10.9943 11.308C11.0983 11.156 11.2183 11.028 11.3543 10.924C11.4903 10.82 11.6463 10.74 11.8223 10.684C12.0063 10.62 12.2263 10.588 12.4823 10.588C12.8423 10.588 13.1783 10.648 13.4903 10.768C13.8023 10.888 14.0703 11.064 14.2943 11.296C14.5263 11.52 14.7063 11.796 14.8343 12.124C14.9703 12.452 15.0383 12.824 15.0383 13.24C15.0383 13.664 14.9703 14.052 14.8343 14.404C14.6983 14.756 14.4983 15.064 14.2343 15.328C13.9703 15.584 13.6463 15.784 13.2623 15.928C12.8783 16.072 12.4383 16.144 11.9423 16.144C11.5583 16.144 11.2143 16.1 10.9103 16.012C10.6063 15.932 10.3383 15.82 10.1063 15.676C9.87434 15.532 9.67434 15.368 9.50634 15.184C9.33834 14.992 9.19034 14.792 9.06234 14.584L10.2143 13.696C10.3103 13.856 10.4103 14.008 10.5143 14.152C10.6183 14.288 10.7383 14.408 10.8743 14.512C11.0183 14.616 11.1743 14.7 11.3423 14.764C11.5183 14.82 11.7223 14.848 11.9543 14.848C12.4263 14.848 12.7823 14.716 13.0223 14.452C13.2703 14.188 13.3943 13.828 13.3943 13.372V13.276C13.3943 12.844 13.2703 12.504 13.0223 12.256C12.7743 12.008 12.4303 11.884 11.9903 11.884C11.6463 11.884 11.3663 11.952 11.1503 12.088C10.9343 12.216 10.7623 12.356 10.6343 12.508L9.33834 12.328L9.65034 7.624H14.5823V8.992Z" fill="#2B2D42"/>
</svg>
