<svg width="55" height="24" viewBox="0 0 55 24" fill="none" xmlns="http://www.w3.org/2000/svg">
<rect width="55" height="24" rx="12" fill="#D38DD8"/>
<path d="M13.8791 16.12C13.2311 16.12 12.7151 15.964 12.3311 15.652C11.9471 15.332 11.7551 14.84 11.7551 14.176C11.7551 13.552 11.9391 13.072 12.3071 12.736C12.6751 12.4 13.1991 12.232 13.8791 12.232H15.8951V11.8C15.8951 11.368 15.7791 11.04 15.5471 10.816C15.3151 10.584 14.9471 10.468 14.4431 10.468C13.9711 10.468 13.5911 10.572 13.3031 10.78C13.0151 10.98 12.7791 11.216 12.5951 11.488L11.6231 10.636C11.7591 10.428 11.9151 10.24 12.0911 10.072C12.2751 9.896 12.4831 9.748 12.7151 9.628C12.9551 9.5 13.2231 9.404 13.5191 9.34C13.8231 9.268 14.1631 9.232 14.5391 9.232C15.3151 9.232 15.9511 9.388 16.4471 9.7C16.4871 9.468 16.5831 9.304 16.7351 9.208C16.8951 9.104 17.0991 9.052 17.3471 9.052H18.7511V10.324H17.0711V10.372C17.3111 10.732 17.4311 11.188 17.4311 11.74V16H15.8951V13.228H14.3951C13.6831 13.228 13.3271 13.512 13.3271 14.08V14.308C13.3271 14.588 13.4071 14.808 13.5671 14.968C13.7271 15.128 13.9471 15.208 14.2271 15.208C14.3551 15.208 14.4671 15.196 14.5631 15.172L14.6711 16.036C14.6071 16.06 14.4911 16.08 14.3231 16.096C14.1551 16.112 14.0071 16.12 13.8791 16.12ZM16.6675 7.792C16.8275 7.792 16.9555 7.748 17.0515 7.66C17.1475 7.572 17.1955 7.448 17.1955 7.288V7.12C17.1955 6.96 17.1475 6.836 17.0515 6.748C16.9555 6.66 16.8275 6.616 16.6675 6.616C16.5075 6.616 16.3795 6.66 16.2835 6.748C16.1875 6.836 16.1395 6.96 16.1395 7.12V7.288C16.1395 7.448 16.1875 7.572 16.2835 7.66C16.3795 7.748 16.5075 7.792 16.6675 7.792ZM16.6675 8.68C16.1875 8.68 15.8075 8.54 15.5275 8.26C15.2475 7.98 15.1075 7.628 15.1075 7.204C15.1075 6.78 15.2475 6.428 15.5275 6.148C15.8075 5.868 16.1875 5.728 16.6675 5.728C17.1475 5.728 17.5275 5.868 17.8075 6.148C18.0875 6.428 18.2275 6.78 18.2275 7.204C18.2275 7.628 18.0875 7.98 17.8075 8.26C17.5275 8.54 17.1475 8.68 16.6675 8.68ZM22.4451 11.572C22.4451 11.22 22.3531 10.948 22.1691 10.756C21.9931 10.564 21.7091 10.468 21.3171 10.468C20.9571 10.468 20.6691 10.544 20.4531 10.696C20.2451 10.848 20.0691 11.036 19.9251 11.26L19.0131 10.444C19.2451 10.076 19.5451 9.784 19.9131 9.568C20.2891 9.344 20.7931 9.232 21.4251 9.232C22.2651 9.232 22.9011 9.428 23.3331 9.82C23.7651 10.204 23.9811 10.76 23.9811 11.488V16H22.4451V11.572ZM28.0709 16.144C27.4469 16.144 26.9149 16.04 26.4749 15.832C26.0429 15.624 25.6629 15.328 25.3349 14.944L26.2829 14.044C26.5149 14.324 26.7869 14.544 27.0989 14.704C27.4109 14.856 27.7629 14.932 28.1549 14.932C28.5629 14.932 28.8549 14.864 29.0309 14.728C29.2149 14.592 29.3069 14.404 29.3069 14.164C29.3069 13.924 29.2349 13.748 29.0909 13.636C28.9469 13.516 28.7309 13.436 28.4429 13.396L27.7949 13.312C27.4669 13.272 27.1669 13.204 26.8949 13.108C26.6229 13.012 26.3869 12.884 26.1869 12.724C25.9949 12.564 25.8429 12.368 25.7309 12.136C25.6269 11.904 25.5749 11.632 25.5749 11.32C25.5749 11 25.6349 10.712 25.7549 10.456C25.8829 10.192 26.0549 9.972 26.2709 9.796C26.4949 9.612 26.7589 9.472 27.0629 9.376C27.3749 9.28 27.7189 9.232 28.0949 9.232C28.7109 9.232 29.2149 9.324 29.6069 9.508C29.9989 9.692 30.3509 9.944 30.6629 10.264L29.7509 11.176C29.5669 10.968 29.3309 10.796 29.0429 10.66C28.7549 10.516 28.4429 10.444 28.1069 10.444C27.7469 10.444 27.4789 10.516 27.3029 10.66C27.1349 10.796 27.0509 10.98 27.0509 11.212C27.0509 11.444 27.1229 11.624 27.2669 11.752C27.4189 11.872 27.6629 11.956 27.9989 12.004L28.6469 12.1C29.3029 12.196 29.8229 12.388 30.2069 12.676C30.5909 12.964 30.7829 13.416 30.7829 14.032C30.7829 14.344 30.7189 14.632 30.5909 14.896C30.4629 15.152 30.2789 15.372 30.0389 15.556C29.8069 15.74 29.5229 15.884 29.1869 15.988C28.8509 16.092 28.4789 16.144 28.0709 16.144ZM34.8497 16.144C34.4336 16.144 34.0496 16.088 33.6976 15.976C33.3456 15.856 33.0416 15.696 32.7856 15.496C32.5296 15.288 32.3296 15.044 32.1856 14.764C32.0416 14.476 31.9696 14.16 31.9696 13.816V13.216C31.9696 12.912 32.0456 12.676 32.1976 12.508C32.3576 12.332 32.6096 12.244 32.9536 12.244H34.3456V13.408H33.3736V13.696C33.3736 14.112 33.5096 14.428 33.7816 14.644C34.0536 14.852 34.4296 14.956 34.9096 14.956C35.3736 14.956 35.7336 14.804 35.9897 14.5C36.2457 14.196 36.3737 13.776 36.3737 13.24V12.172C36.3737 11.636 36.2297 11.22 35.9416 10.924C35.6536 10.62 35.2496 10.468 34.7296 10.468C34.2656 10.468 33.8656 10.568 33.5296 10.768C33.2016 10.968 32.9576 11.188 32.7976 11.428L31.8616 10.588C32.0936 10.204 32.4536 9.884 32.9416 9.628C33.4376 9.364 34.0536 9.232 34.7896 9.232C35.2936 9.232 35.7416 9.312 36.1336 9.472C36.5256 9.624 36.8576 9.852 37.1296 10.156C37.4096 10.452 37.6216 10.816 37.7657 11.248C37.9097 11.672 37.9817 12.152 37.9817 12.688C37.9817 13.768 37.7097 14.616 37.1656 15.232C36.6216 15.84 35.8497 16.144 34.8497 16.144ZM38.7452 11.248H40.2692L41.8052 14.776H41.8532C42.1972 14.776 42.4652 14.64 42.6572 14.368C42.8492 14.096 42.9452 13.716 42.9452 13.228V12.16C42.9452 11.672 42.8492 11.292 42.6572 11.02C42.4652 10.748 42.1972 10.612 41.8532 10.612H41.3852V9.376H41.8652C42.7132 9.376 43.3732 9.668 43.8452 10.252C44.3172 10.828 44.5532 11.64 44.5532 12.688C44.5532 13.736 44.3172 14.552 43.8452 15.136C43.3732 15.712 42.7132 16 41.8652 16H40.8212L38.7452 11.248Z" fill="#2B2D42"/>
</svg>
