<svg width="24" height="35" viewBox="0 0 24 35" fill="none" xmlns="http://www.w3.org/2000/svg">
<path d="M17.8402 9.83984V34.4398L14.1002 31.7798L12.0002 30.2898L9.92016 31.7698L6.16016 34.4398V9.83984H17.8402Z" fill="#8A2BE4"/>
<path d="M14.0999 9.83984V31.7798L11.9999 30.2898L9.91992 31.7698V9.83984H14.0999Z" fill="white"/>
<path d="M12 24C18.6274 24 24 18.6274 24 12C24 5.37258 18.6274 0 12 0C5.37258 0 0 5.37258 0 12C0 18.6274 5.37258 24 12 24Z" fill="#00FFFF"/>
<path d="M11.7463 11.548C12.2263 11.548 12.5783 11.452 12.8023 11.26C13.0343 11.06 13.1503 10.808 13.1503 10.504V10.42C13.1503 10.076 13.0383 9.80804 12.8143 9.61604C12.5983 9.41604 12.2983 9.31604 11.9143 9.31604C11.5463 9.31604 11.2183 9.40404 10.9303 9.58004C10.6503 9.75604 10.4063 10.004 10.1983 10.324L9.19034 9.41204C9.33434 9.22004 9.49034 9.04004 9.65834 8.87204C9.83434 8.69604 10.0343 8.54804 10.2583 8.42804C10.4823 8.30004 10.7343 8.20004 11.0143 8.12804C11.2943 8.05604 11.6103 8.02004 11.9623 8.02004C12.3863 8.02004 12.7703 8.07204 13.1143 8.17604C13.4663 8.27204 13.7663 8.41604 14.0143 8.60804C14.2703 8.80004 14.4663 9.03204 14.6023 9.30404C14.7383 9.56804 14.8063 9.86804 14.8063 10.204C14.8063 10.476 14.7623 10.72 14.6743 10.936C14.5943 11.152 14.4783 11.34 14.3263 11.5C14.1823 11.66 14.0103 11.792 13.8103 11.896C13.6183 11.992 13.4143 12.064 13.1983 12.112V12.184C13.4383 12.232 13.6663 12.308 13.8823 12.412C14.0983 12.516 14.2823 12.656 14.4343 12.832C14.5943 13 14.7183 13.2 14.8063 13.432C14.9023 13.664 14.9503 13.928 14.9503 14.224C14.9503 14.592 14.8743 14.928 14.7223 15.232C14.5783 15.536 14.3703 15.796 14.0983 16.012C13.8263 16.228 13.5023 16.396 13.1263 16.516C12.7503 16.628 12.3303 16.684 11.8663 16.684C11.4583 16.684 11.0983 16.64 10.7863 16.552C10.4743 16.472 10.1983 16.36 9.95834 16.216C9.72634 16.072 9.52234 15.908 9.34634 15.724C9.17034 15.532 9.01834 15.332 8.89034 15.124L10.0543 14.236C10.1503 14.404 10.2543 14.56 10.3663 14.704C10.4783 14.84 10.6063 14.96 10.7503 15.064C10.8943 15.168 11.0583 15.248 11.2423 15.304C11.4263 15.36 11.6343 15.388 11.8663 15.388C12.3303 15.388 12.6863 15.276 12.9343 15.052C13.1823 14.828 13.3063 14.52 13.3063 14.128V14.044C13.3063 13.66 13.1703 13.368 12.8983 13.168C12.6343 12.968 12.2503 12.868 11.7463 12.868H10.9183V11.548H11.7463Z" fill="#2B2D42"/>
</svg>
