<svg width="36" height="39" viewBox="0 0 36 39" fill="none" xmlns="http://www.w3.org/2000/svg">
<path d="M23.14 16.8796L10.44 38.8596L8.47 34.5496L7.37 32.1396L4.74 32.3796L0 32.8396L12.7 10.8496L23.14 16.8796Z" fill="#8A2BE4"/>
<path d="M19.7902 14.95L8.47023 34.55L7.37023 32.14L4.74023 32.38L16.0502 12.79L19.7902 14.95Z" fill="white"/>
<path d="M22.71 10.8496L35.4 32.8396L30.68 32.3896L28.03 32.1396L26.93 34.5296L24.96 38.8596L12.27 16.8796L22.71 10.8496Z" fill="#8A2BE4"/>
<path d="M19.3601 12.7793L30.6801 32.3893L28.0301 32.1393L26.9301 34.5293L15.6201 14.9393L19.3601 12.7793Z" fill="white"/>
<path d="M17.7002 28C9.9802 28 3.7002 21.72 3.7002 14C3.7002 6.28 9.9802 0 17.7002 0C25.4202 0 31.7002 6.28 31.7002 14C31.7002 21.72 25.4202 28 17.7002 28Z" fill="#00FFFF"/>
<path d="M17.7002 26C24.3276 26 29.7002 20.6274 29.7002 14C29.7002 7.37258 24.3276 2 17.7002 2C11.0728 2 5.7002 7.37258 5.7002 14C5.7002 20.6274 11.0728 26 17.7002 26Z" fill="#00FFFF" stroke="#2B2D42" stroke-miterlimit="10"/>
<path d="M20.6145 18.54H14.8065V17.076L17.4345 14.772C17.8825 14.38 18.2105 14.028 18.4185 13.716C18.6265 13.396 18.7305 13.052 18.7305 12.684V12.528C18.7305 12.16 18.6105 11.88 18.3705 11.688C18.1305 11.488 17.8385 11.388 17.4945 11.388C17.0625 11.388 16.7345 11.512 16.5105 11.76C16.2865 12 16.1265 12.292 16.0305 12.636L14.6625 12.108C14.7505 11.828 14.8745 11.564 15.0345 11.316C15.1945 11.06 15.3945 10.836 15.6345 10.644C15.8825 10.452 16.1705 10.3 16.4985 10.188C16.8265 10.076 17.2025 10.02 17.6265 10.02C18.0665 10.02 18.4585 10.084 18.8025 10.212C19.1465 10.332 19.4345 10.504 19.6665 10.728C19.9065 10.952 20.0865 11.216 20.2065 11.52C20.3345 11.824 20.3985 12.156 20.3985 12.516C20.3985 12.868 20.3425 13.188 20.2305 13.476C20.1185 13.764 19.9665 14.04 19.7745 14.304C19.5825 14.56 19.3585 14.808 19.1025 15.048C18.8465 15.28 18.5745 15.516 18.2865 15.756L16.5225 17.208H20.6145V18.54Z" fill="#2B2D42"/>
</svg>
