<svg width="36" height="44" viewBox="0 0 36 44" fill="none" xmlns="http://www.w3.org/2000/svg">
<path d="M17.7001 0L22.2601 4.41L28.5501 3.52L29.6401 9.78L35.2501 12.75L32.4601 18.46L35.2501 24.16L29.6401 27.14L28.5501 33.39L22.2601 32.5L17.7001 36.91L13.1401 32.5L6.85014 33.39L5.75014 27.14L0.140137 24.16L2.93014 18.46L0.140137 12.75L5.75014 9.78L6.85014 3.52L13.1401 4.41L17.7001 0Z" fill="#00FFFF"/>
<path d="M23.13 21.3396L10.44 43.3196L8.46999 39.0096L7.37 36.5996L4.74 36.8396L0 37.2996L12.69 15.3096L23.13 21.3396Z" fill="#8A2BE4"/>
<path d="M19.7902 19.41L8.47023 39.01L7.37023 36.6L4.74023 36.84L16.0502 17.25L19.7902 19.41Z" fill="white"/>
<path d="M22.6998 15.3096L35.3998 37.2996L30.6698 36.8496L28.0298 36.5996L26.9298 38.9896L24.9598 43.3196L12.2598 21.3396L22.6998 15.3096Z" fill="#8A2BE4"/>
<path d="M19.3596 17.2393L30.6696 36.8493L28.0296 36.5993L26.9296 38.9893L15.6196 19.3993L19.3596 17.2393Z" fill="white"/>
<path d="M20.8101 27.4092V40.4892L18.8201 39.0692L17.7001 38.2792L16.5901 39.0592L14.6001 40.4892V27.4092H20.8101Z" fill="white"/>
<path d="M18.8203 27.4092V39.0692L17.7003 38.2792L16.5903 39.0592V27.4092H18.8203Z" fill="#8A2BE4"/>
<path d="M17.7002 30.46C24.3276 30.46 29.7002 25.0874 29.7002 18.46C29.7002 11.8325 24.3276 6.45996 17.7002 6.45996C11.0728 6.45996 5.7002 11.8325 5.7002 18.46C5.7002 25.0874 11.0728 30.46 17.7002 30.46Z" fill="#00FFFF" stroke="#2B2D42" stroke-miterlimit="10"/>
<path d="M14.9943 22V20.716H17.2983V14.764H17.1903L15.3663 16.924L14.3823 16.096L16.4583 13.624H18.8463V20.716H20.7663V22H14.9943Z" fill="#2B2D42"/>
</svg>
