<svg width="349" height="74" viewBox="0 0 349 74" fill="none" xmlns="http://www.w3.org/2000/svg">
    <path
        d="M317.56 36.57H37.99L12.32 10.91C13.17 9.77 13.68 8.37 13.68 6.84C13.68 3.07 10.61 0 6.84 0C3.07 0 0 3.07 0 6.84C0 10.61 3.07 13.68 6.84 13.68C8.36 13.68 9.77 13.17 10.91 12.32L37.16 38.57H316.74L346.12 67.63H348.63L317.57 36.57H317.56ZM6.84 12.68C3.62 12.68 1 10.06 1 6.84C1 3.62 3.62 1 6.84 1C10.06 1 12.68 3.62 12.68 6.84C12.68 8.09 12.28 9.25 11.61 10.2L10.27 8.86C10.62 8.27 10.84 7.58 10.84 6.84C10.84 4.63 9.05 2.84 6.84 2.84C4.63 2.84 2.84 4.63 2.84 6.84C2.84 9.05 4.63 10.84 6.84 10.84C7.58 10.84 8.26 10.63 8.86 10.28L10.2 11.62C9.25 12.29 8.09 12.69 6.84 12.69V12.68Z"
        fill="#00FFFF" />
    <g filter="url(#filter0_d_122_13483)">
        <path d="M68.4297 41.71L86.3497 59.62L278.77 59.98L260.51 41.71H68.4297Z" fill="#8A2BE4" />
    </g>
    <g filter="url(#filter1_d_122_13483)">
        <path d="M264.76 41.71L290.18 67.13L304.24 67.63L278.32 41.71H264.76Z" fill="#8A2BE4" />
    </g>
    <g filter="url(#filter2_d_122_13483)">
        <path d="M282.76 41.71L308.18 67.13L322.24 67.63L296.32 41.71H282.76Z" fill="#8A2BE4" />
    </g>
    <g filter="url(#filter3_d_122_13483)">
        <path d="M300.76 41.71L326.18 67.13L340.24 67.63L314.32 41.71H300.76Z" fill="#8A2BE4" />
    </g>
    <defs>
        <filter id="filter0_d_122_13483" x="62.4297" y="35.71" width="222.34" height="30.27"
            filterUnits="userSpaceOnUse" color-interpolation-filters="sRGB">
            <feFlood flood-opacity="0" result="BackgroundImageFix" />
            <feColorMatrix in="SourceAlpha" type="matrix"
                values="0 0 0 0 0 0 0 0 0 0 0 0 0 0 0 0 0 0 127 0" result="hardAlpha" />
            <feOffset />
            <feGaussianBlur stdDeviation="3" />
            <feComposite in2="hardAlpha" operator="out" />
            <feColorMatrix type="matrix" values="0 0 0 0 1 0 0 0 0 1 0 0 0 0 1 0 0 0 1 0" />
            <feBlend mode="normal" in2="BackgroundImageFix" result="effect1_dropShadow_122_13483" />
            <feBlend mode="normal" in="SourceGraphic" in2="effect1_dropShadow_122_13483"
                result="shape" />
        </filter>
        <filter id="filter1_d_122_13483" x="258.76" y="35.71" width="51.4805" height="37.92"
            filterUnits="userSpaceOnUse" color-interpolation-filters="sRGB">
            <feFlood flood-opacity="0" result="BackgroundImageFix" />
            <feColorMatrix in="SourceAlpha" type="matrix"
                values="0 0 0 0 0 0 0 0 0 0 0 0 0 0 0 0 0 0 127 0" result="hardAlpha" />
            <feOffset />
            <feGaussianBlur stdDeviation="3" />
            <feComposite in2="hardAlpha" operator="out" />
            <feColorMatrix type="matrix" values="0 0 0 0 1 0 0 0 0 1 0 0 0 0 1 0 0 0 1 0" />
            <feBlend mode="normal" in2="BackgroundImageFix" result="effect1_dropShadow_122_13483" />
            <feBlend mode="normal" in="SourceGraphic" in2="effect1_dropShadow_122_13483"
                result="shape" />
        </filter>
        <filter id="filter2_d_122_13483" x="276.76" y="35.71" width="51.4805" height="37.92"
            filterUnits="userSpaceOnUse" color-interpolation-filters="sRGB">
            <feFlood flood-opacity="0" result="BackgroundImageFix" />
            <feColorMatrix in="SourceAlpha" type="matrix"
                values="0 0 0 0 0 0 0 0 0 0 0 0 0 0 0 0 0 0 127 0" result="hardAlpha" />
            <feOffset />
            <feGaussianBlur stdDeviation="3" />
            <feComposite in2="hardAlpha" operator="out" />
            <feColorMatrix type="matrix" values="0 0 0 0 1 0 0 0 0 1 0 0 0 0 1 0 0 0 1 0" />
            <feBlend mode="normal" in2="BackgroundImageFix" result="effect1_dropShadow_122_13483" />
            <feBlend mode="normal" in="SourceGraphic" in2="effect1_dropShadow_122_13483"
                result="shape" />
        </filter>
        <filter id="filter3_d_122_13483" x="294.76" y="35.71" width="51.4805" height="37.92"
            filterUnits="userSpaceOnUse" color-interpolation-filters="sRGB">
            <feFlood flood-opacity="0" result="BackgroundImageFix" />
            <feColorMatrix in="SourceAlpha" type="matrix"
                values="0 0 0 0 0 0 0 0 0 0 0 0 0 0 0 0 0 0 127 0" result="hardAlpha" />
            <feOffset />
            <feGaussianBlur stdDeviation="3" />
            <feComposite in2="hardAlpha" operator="out" />
            <feColorMatrix type="matrix" values="0 0 0 0 1 0 0 0 0 1 0 0 0 0 1 0 0 0 1 0" />
            <feBlend mode="normal" in2="BackgroundImageFix" result="effect1_dropShadow_122_13483" />
            <feBlend mode="normal" in="SourceGraphic" in2="effect1_dropShadow_122_13483"
                result="shape" />
        </filter>
    </defs>
</svg>