<svg width="45" height="44" viewBox="0 0 45 44" fill="none" xmlns="http://www.w3.org/2000/svg">
<circle cx="22.5" cy="22" r="22" fill="black"/>
<path d="M22.5312 26.9109C22.5312 26.9109 24.1528 26.7815 24.1528 28.5327L25.7743 26.9109C25.7743 26.9109 24.1528 27.0634 24.1528 25.2891L22.5312 26.9109Z" fill="white"/>
<path d="M7.93164 20.0029V14.371C7.93164 14.1393 8.11889 13.952 8.35054 13.952H10.7558C10.9875 13.952 11.1747 14.1393 11.1747 14.371V19.9682C11.1747 20.2191 10.972 20.4219 10.7211 20.4219H8.35054C8.11889 20.4219 7.93164 20.2346 7.93164 20.0029Z" fill="white"/>
<path d="M17.6621 17.1702V13.9517H20.9052V17.1953H17.6872C17.6737 17.1953 17.6621 17.1837 17.6621 17.1702Z" fill="white"/>
<path d="M14.418 17.1683V14.3166C14.418 14.1139 14.5821 13.9497 14.7847 13.9497H17.661V17.1934H14.4431C14.4296 17.1934 14.418 17.1818 14.418 17.1683Z" fill="white"/>
<path d="M24.1504 14.4068V16.7642C24.1504 17.0017 23.9574 17.1948 23.7199 17.1948H20.9073V13.9512H23.6948C23.9458 13.9512 24.1504 14.1558 24.1504 14.4068Z" fill="white"/>
<path d="M7.93164 26.9107V30.1543H11.1747V26.9107H7.93164Z" fill="white"/>
<path d="M27.3535 16.7298V14.357C27.3535 14.1214 27.5446 13.9322 27.7782 13.9322H29.0735C29.9152 13.9322 30.5985 14.6157 30.5985 15.4575V17.1777H27.8014C27.5543 17.1777 27.3554 16.9769 27.3554 16.7317L27.3535 16.7298Z" fill="white"/>
<path d="M27.3535 30.1543V26.9107H30.5966V28.5827C30.5966 29.4515 29.892 30.1562 29.0233 30.1562H27.3516L27.3535 30.1543Z" fill="white"/>
<path d="M24.1094 19.9739V17.6243C24.1094 17.3771 24.3101 17.1763 24.5572 17.1763H26.9065C27.1536 17.1763 27.3544 17.3771 27.3544 17.6243V19.9392C27.3544 20.2056 27.1382 20.4219 26.8718 20.4219H24.5572C24.3101 20.4219 24.1094 20.2211 24.1094 19.9739Z" fill="white"/>
<path d="M14.4179 20.001V17.1763H17.661V20.3852C17.661 20.4045 17.6456 20.4219 17.6243 20.4219H14.8368C14.6052 20.4219 14.416 20.2346 14.416 20.001H14.4179Z" fill="white"/>
<path d="M17.6621 30.1289V26.8853H20.4747C20.7121 26.8853 20.9052 27.0784 20.9052 27.3158V29.6829C20.9052 29.93 20.7044 30.1289 20.4593 30.1289H17.6621Z" fill="white"/>
<path d="M14.8755 26.8906H17.663V30.1342H14.9122C14.64 30.1342 14.4199 29.9141 14.4199 29.6419V27.3463C14.4199 27.0953 14.6245 26.8906 14.8755 26.8906Z" fill="white"/>
<path d="M24.1523 29.6253V26.9841C24.1523 26.9435 24.1852 26.9088 24.2276 26.9088H27.3221C27.3626 26.9088 27.3973 26.9416 27.3973 26.9841V30.079C27.3973 30.1195 27.3645 30.1543 27.3221 30.1543H24.6813C24.3898 30.1543 24.1523 29.9168 24.1523 29.6253Z" fill="white"/>
<path d="M28.9746 13.9316V17.1753C31.6617 17.1753 33.8411 19.355 33.8411 22.0426C33.8411 24.7302 31.6617 26.91 28.9746 26.91V30.1536C33.4531 30.1536 37.0842 26.5219 37.0842 22.0426C37.0842 17.5633 33.4531 13.9316 28.9746 13.9316Z" fill="white"/>
<path d="M7.93162 26.9005V24.1222C7.93162 23.8692 8.13817 23.6627 8.39105 23.6627H10.6766C10.9508 23.6627 11.1747 23.8866 11.1747 24.1608V26.9005C11.1747 26.9005 11.1708 26.9082 11.167 26.9082H7.93741C7.93741 26.9082 7.92969 26.9043 7.92969 26.9005H7.93162Z" fill="white"/>
<path d="M11.1738 20.8394V23.2451C11.1738 23.4765 11.3614 23.6641 11.5927 23.6641H13.998C14.2293 23.6641 14.4169 23.4765 14.4169 23.2451V20.8394C14.4169 20.608 14.2293 20.4205 13.998 20.4205H11.5927C11.3614 20.4205 11.1738 20.608 11.1738 20.8394Z" fill="white"/>
<path d="M11.1743 22.043C11.1743 22.043 11.3036 23.6648 9.55273 23.6648L11.1743 25.2866C11.1743 25.2866 11.0218 23.6648 12.7958 23.6648L11.1743 22.043Z" fill="white"/>
<path d="M17.6645 15.5723C17.6645 15.5723 17.7938 17.1941 16.043 17.1941L17.6645 18.8159C17.6645 18.8159 17.512 17.1941 19.286 17.1941L17.6645 15.5723Z" fill="white"/>
<path d="M20.9086 25.2871C20.9086 25.2871 21.038 26.9089 19.2871 26.9089L20.9086 28.5307C20.9086 28.5307 20.7561 26.9089 22.5302 26.9089L20.9086 25.2871Z" fill="white"/>
<path d="M27.354 15.5723C27.354 15.5723 27.4833 17.1941 25.7324 17.1941L27.354 18.8159C27.354 18.8159 27.2015 17.1941 28.9755 17.1941L27.354 15.5723Z" fill="white"/>
<path d="M24.1528 15.5723C24.1528 15.5723 24.0234 17.1941 25.7743 17.1941L24.1528 18.8159C24.1528 18.8159 24.3053 17.1941 22.5312 17.1941L24.1528 15.5723Z" fill="white"/>
<path d="M17.6625 18.7988C17.6625 18.7988 17.5332 20.4206 19.2841 20.4206L17.6625 22.0424C17.6625 22.0424 17.815 20.4206 16.041 20.4206L17.6625 18.7988Z" fill="white"/>
<path d="M11.1743 18.7988C11.1743 18.7988 11.0449 20.4206 12.7958 20.4206L11.1743 22.0424C11.1743 22.0424 11.3268 20.4206 9.55273 20.4206L11.1743 18.7988Z" fill="white"/>
<path d="M20.9062 26.2981V24.9331C20.9062 24.2322 21.4738 23.6646 22.1745 23.6646H24.1493V26.9082H21.5163C21.1784 26.9082 20.9062 26.634 20.9062 26.2981Z" fill="white"/>
<path d="M17.6621 20.8549V23.2297C17.6621 23.4696 17.8566 23.6641 18.0964 23.6641H20.4708C20.7107 23.6641 20.9052 23.4696 20.9052 23.2297V20.8549C20.9052 20.6149 20.7107 20.4205 20.4708 20.4205H18.0964C17.8566 20.4205 17.6621 20.6149 17.6621 20.8549Z" fill="white"/>
<path d="M20.9067 22.043C20.9067 22.043 20.7774 23.6648 22.5282 23.6648L20.9067 25.2866C20.9067 25.2866 21.0592 23.6648 19.2852 23.6648L20.9067 22.043Z" fill="white"/>
<path d="M24.1523 26.9082V23.6646H27.3568C27.378 23.6646 27.3954 23.682 27.3954 23.7032V26.9082H24.1523Z" fill="#0090FF"/>
<path d="M27.3965 20.8722V23.2123C27.3965 23.4618 27.5987 23.6641 27.8482 23.6641H30.1878C30.4373 23.6641 30.6396 23.4618 30.6396 23.2123V20.8722C30.6396 20.6227 30.4373 20.4204 30.1878 20.4204H27.8482C27.5987 20.4204 27.3965 20.6227 27.3965 20.8722Z" fill="#0090FF"/>
<path d="M27.395 22.043C27.395 22.043 27.5243 23.6648 25.7734 23.6648L27.395 25.2866C27.395 25.2866 27.2425 23.6648 29.0165 23.6648L27.395 22.043Z" fill="#0090FF"/>
<path d="M7.92969 17.1953V14.3745C7.92969 14.1409 8.11887 13.9498 8.35437 13.9498H10.75C10.9836 13.9498 11.1747 14.139 11.1747 14.3745V17.1953H7.93162H7.92969Z" fill="#D83273"/>
</svg>
