<svg width="39" height="38" viewBox="0 0 39 38" fill="none" xmlns="http://www.w3.org/2000/svg">
<path d="M15.6016 0.589571H15.6037C15.8386 0.578817 16.0757 0.570213 16.3107 0.56161C16.5283 0.553006 16.7482 0.544403 16.968 0.53795C17.1728 0.531497 17.3754 0.525044 17.5801 0.520743C17.7741 0.51429 17.9681 0.509988 18.1642 0.507837C18.3517 0.503535 18.5414 0.501384 18.731 0.497083C18.9164 0.494932 19.1039 0.492781 19.2893 0.49063C19.4746 0.488479 19.6621 0.486328 19.8475 0.486328C20.0372 0.486328 20.2247 0.486328 20.4143 0.486328C20.6083 0.486328 20.8023 0.486328 20.9984 0.488479C21.2032 0.488479 21.4058 0.49063 21.6105 0.494932C21.8261 0.494932 22.0437 0.501384 22.2593 0.505686C22.4964 0.509988 22.7334 0.516441 22.9727 0.522893" stroke="#FFE4E1" stroke-width="1.45" stroke-miterlimit="10"/>
<path d="M4.54883 7.50282C5.41957 7.41033 6.29246 7.32859 7.16751 7.25116C8.01023 7.17588 8.85295 7.1092 9.69998 7.04898C10.5211 6.9909 11.3445 6.93713 12.1678 6.89411C12.9739 6.84894 13.78 6.81023 14.586 6.77796C15.3813 6.74785 16.1766 6.72204 16.9719 6.70268C17.7629 6.68332 18.5539 6.67042 19.3449 6.66181C20.1359 6.65536 20.9269 6.65321 21.7179 6.65751C22.5132 6.66181 23.3107 6.67257 24.106 6.68978C24.9121 6.70698 25.7181 6.72849 26.5264 6.7586C27.3497 6.78872 28.173 6.82528 28.9985 6.87045C29.8455 6.91347 30.6904 6.96509 31.5331 7.02532C32.4082 7.08554 33.2832 7.15437 34.1561 7.22965" stroke="#FFE4E1" stroke-width="1.45" stroke-miterlimit="10"/>
<path d="M1.42969 13.5188C2.44052 13.45 3.45351 13.3854 4.46865 13.3274C5.47302 13.2693 6.47739 13.2177 7.48391 13.1704C8.48181 13.123 9.47971 13.08 10.4798 13.0434C11.4734 13.0047 12.467 12.9703 13.4627 12.9445C14.4541 12.9165 15.4434 12.8929 16.4348 12.8757C17.4241 12.8563 18.4134 12.8413 19.4027 12.8327C20.392 12.8241 21.3813 12.8176 22.3705 12.8198C23.362 12.8198 24.3534 12.8241 25.3448 12.8348C26.3406 12.8434 27.3342 12.8585 28.3278 12.8778C29.3278 12.8972 30.3279 12.9208 31.3279 12.951C32.3345 12.9789 33.341 13.0133 34.3453 13.0542C35.3605 13.0929 36.3756 13.1359 37.3865 13.1876" stroke="#FFE4E1" stroke-width="1.45" stroke-miterlimit="10"/>
<path d="M0.617188 19.1758C1.66251 19.1672 2.70998 19.1564 3.75745 19.1457C4.80277 19.1371 5.85024 19.1263 6.89772 19.1156C7.94303 19.1048 8.99051 19.0962 10.038 19.0855C11.0833 19.0747 12.1308 19.0661 13.1782 19.0554C14.2257 19.0446 15.271 19.036 16.3185 19.0252C17.366 19.0145 18.4113 19.0059 19.4588 18.9951C20.5062 18.9844 21.5537 18.9758 22.599 18.965C23.6444 18.9543 24.6918 18.9457 25.7393 18.9349C26.7868 18.9241 27.8342 18.9155 28.8796 18.9048C29.9292 18.894 30.9745 18.8854 32.0198 18.8747C33.0651 18.8639 34.1169 18.8553 35.1601 18.8446C36.2097 18.8338 37.255 18.8252 38.3004 18.8145" stroke="#FFE4E1" stroke-width="1.45" stroke-miterlimit="10"/>
<path d="M1.53516 24.8154C2.54814 24.867 3.56113 24.9101 4.57628 24.9488C5.58064 24.9896 6.58717 25.0241 7.59369 25.052C8.59159 25.0821 9.59165 25.1058 10.5917 25.1251C11.5853 25.1467 12.581 25.1617 13.5746 25.1682C14.5661 25.1789 15.5575 25.1832 16.5489 25.1832C17.5382 25.1832 18.5275 25.1789 19.5168 25.1703C20.5061 25.1617 21.4953 25.1467 22.4846 25.1294C23.4761 25.1101 24.4675 25.0864 25.4568 25.0585C26.4504 25.0327 27.4461 24.9982 28.4397 24.9595C29.4398 24.923 30.4398 24.8799 31.4356 24.8326C32.4421 24.7853 33.4464 24.7315 34.4508 24.6756C35.4638 24.6175 36.4768 24.5552 37.4876 24.4863" stroke="#FFE4E1" stroke-width="1.45" stroke-miterlimit="10"/>
<path d="M4.76367 30.7734C5.63657 30.8486 6.51162 30.9175 7.38666 30.9777C8.22939 31.0379 9.07642 31.0874 9.92345 31.1326C10.7468 31.1756 11.5679 31.2143 12.3913 31.2423C13.1973 31.2724 14.0034 31.296 14.8117 31.3132C15.607 31.3304 16.4044 31.3412 17.1997 31.3455C17.9907 31.3498 18.7817 31.3498 19.5727 31.3412C20.3637 31.3348 21.1547 31.3197 21.9457 31.3003C22.741 31.281 23.5363 31.2552 24.3316 31.2229C25.1377 31.1928 25.9438 31.1541 26.7498 31.1089C27.5732 31.0637 28.3965 31.0121 29.2176 30.954C30.0625 30.8938 30.9074 30.8271 31.7501 30.7519C32.6252 30.6744 33.4981 30.5905 34.3688 30.498" stroke="#FFE4E1" stroke-width="1.45" stroke-miterlimit="10"/>
<path d="M15.9434 37.4772H15.9455C16.1804 37.4837 16.4154 37.488 16.6524 37.4923C16.8701 37.4966 17.09 37.5009 17.3077 37.503C17.5124 37.5073 17.7129 37.5095 17.9176 37.5095C18.1116 37.5095 18.3056 37.5116 18.4995 37.5095C18.687 37.5116 18.8767 37.5095 19.0664 37.5095C19.2539 37.5095 19.4392 37.5095 19.6268 37.5073C19.8143 37.5052 19.9996 37.503 20.1871 37.4987C20.3746 37.4987 20.5643 37.4944 20.754 37.488C20.948 37.488 21.1419 37.4815 21.3359 37.4751C21.5407 37.4708 21.7411 37.4643 21.9459 37.4579C22.1635 37.4514 22.3812 37.4428 22.6011 37.4342C22.836 37.4256 23.0731 37.417 23.308 37.4062H23.3102" stroke="#FFE4E1" stroke-width="1.45" stroke-miterlimit="10"/>
</svg>
