<svg width="58" height="58" viewBox="0 0 58 58" fill="none" xmlns="http://www.w3.org/2000/svg">
<g clip-path="url(#clip0_757_20106)" filter="url(#filter0_d_757_20106)">
<path d="M28.7861 10.1961C39.1919 10.0994 47.7075 18.4406 47.8045 28.8251C47.9014 39.2097 39.5432 47.7079 29.1374 47.8047" stroke="#FFE4E1" stroke-width="1.82" stroke-miterlimit="10"/>
<path d="M28.7861 10.1957C35.724 10.1312 41.4269 18.4982 41.5218 28.8827C41.6188 39.2673 36.0732 47.7397 29.1353 47.8042" stroke="#FFE4E1" stroke-width="1.7" stroke-miterlimit="10"/>
<path d="M28.7861 10.1964C32.254 10.1641 35.1443 18.5569 35.2412 28.9415C35.3382 39.3261 32.6032 47.7727 29.1353 47.8028" stroke="#FFE4E1" stroke-width="1.58" stroke-miterlimit="10"/>
<path d="M28.7861 10.1963C28.7861 10.1963 28.8637 18.6149 28.9607 28.9995C29.0577 39.384 29.1353 47.8027 29.1353 47.8027" stroke="#FFE4E1" stroke-width="1.46" stroke-miterlimit="10"/>
<path d="M28.7862 10.1963C25.3183 10.2286 22.5832 18.673 22.6802 29.0576C22.7772 39.4421 25.6675 47.8349 29.1353 47.8027" stroke="#FFE4E1" stroke-width="1.33" stroke-miterlimit="10"/>
<path d="M28.7862 10.1963C21.8483 10.2608 16.3027 18.7311 16.3997 29.1178C16.4967 39.5023 22.1996 47.8694 29.1353 47.8048" stroke="#FFE4E1" stroke-width="1.21" stroke-miterlimit="10"/>
<path d="M28.786 10.1963C18.3802 10.2931 10.022 18.7913 10.119 29.1759C10.216 39.5604 18.7294 47.9016 29.1373 47.8048" stroke="#FFE4E1" stroke-width="1.09" stroke-miterlimit="10"/>
<path d="M25.1016 10.5896H25.1037C25.3386 10.5788 25.5757 10.5702 25.8107 10.5616C26.0283 10.553 26.2482 10.5444 26.468 10.5379C26.6728 10.5315 26.8754 10.525 27.0801 10.5207C27.2741 10.5143 27.4681 10.51 27.6642 10.5078C27.8517 10.5035 28.0414 10.5014 28.231 10.4971C28.4164 10.4949 28.6039 10.4928 28.7893 10.4906C28.9746 10.4885 29.1621 10.4863 29.3475 10.4863C29.5372 10.4863 29.7247 10.4863 29.9143 10.4863C30.1083 10.4863 30.3023 10.4863 30.4984 10.4885C30.7032 10.4885 30.9058 10.4906 31.1105 10.4949C31.3261 10.4949 31.5437 10.5014 31.7593 10.5057C31.9964 10.51 32.2334 10.5164 32.4727 10.5229" stroke="#FFE4E1" stroke-width="1.45" stroke-miterlimit="10"/>
<path d="M14.0498 17.5028C14.9205 17.4103 15.7934 17.3286 16.6685 17.2512C17.5112 17.1759 18.3539 17.1092 19.201 17.049C20.0221 16.9909 20.8454 16.9371 21.6688 16.8941C22.4749 16.8489 23.2809 16.8102 24.087 16.778C24.8823 16.7478 25.6776 16.722 26.4729 16.7027C27.2639 16.6833 28.0549 16.6704 28.8459 16.6618C29.6369 16.6554 30.4279 16.6532 31.2189 16.6575C32.0142 16.6618 32.8116 16.6726 33.6069 16.6898C34.413 16.707 35.2191 16.7285 36.0273 16.7586C36.8507 16.7887 37.674 16.8253 38.4995 16.8705C39.3465 16.9135 40.1914 16.9651 41.0341 17.0253C41.9091 17.0855 42.7842 17.1544 43.6571 17.2297" stroke="#FFE4E1" stroke-width="1.45" stroke-miterlimit="10"/>
<path d="M10.9307 23.5188C11.9415 23.45 12.9545 23.3854 13.9696 23.3274C14.974 23.2693 15.9784 23.2177 16.9849 23.1704C17.9828 23.123 18.9807 23.08 19.9807 23.0434C20.9743 23.0047 21.9679 22.9703 22.9637 22.9445C23.9551 22.9165 24.9444 22.8929 25.9358 22.8757C26.9251 22.8563 27.9144 22.8413 28.9037 22.8327C29.8929 22.8241 30.8822 22.8176 31.8715 22.8198C32.8629 22.8198 33.8544 22.8241 34.8458 22.8348C35.8416 22.8434 36.8352 22.8585 37.8287 22.8778C38.8288 22.8972 39.8289 22.9208 40.8289 22.951C41.8354 22.9789 42.842 23.0133 43.8463 23.0542C44.8615 23.0929 45.8766 23.1359 46.8874 23.1876" stroke="#FFE4E1" stroke-width="1.45" stroke-miterlimit="10"/>
<path d="M10.1182 29.1758C11.1635 29.1672 12.211 29.1564 13.2584 29.1457C14.3037 29.1371 15.3512 29.1263 16.3987 29.1156C17.444 29.1048 18.4915 29.0962 19.539 29.0855C20.5843 29.0747 21.6317 29.0661 22.6792 29.0554C23.7267 29.0446 24.772 29.036 25.8195 29.0252C26.867 29.0145 27.9123 29.0059 28.9597 28.9951C30.0072 28.9844 31.0547 28.9758 32.1 28.965C33.1453 28.9543 34.1928 28.9457 35.2403 28.9349C36.2878 28.9241 37.3352 28.9155 38.3805 28.9048C39.4302 28.894 40.4755 28.8854 41.5208 28.8747C42.5661 28.8639 43.6179 28.8553 44.6611 28.8446C45.7107 28.8338 46.756 28.8252 47.8013 28.8145" stroke="#FFE4E1" stroke-width="1.45" stroke-miterlimit="10"/>
<path d="M11.0361 34.8154C12.0491 34.867 13.0621 34.9101 14.0773 34.9488C15.0816 34.9896 16.0881 35.0241 17.0947 35.052C18.0926 35.0821 19.0926 35.1058 20.0927 35.1251C21.0863 35.1467 22.082 35.1617 23.0756 35.1682C24.067 35.1789 25.0585 35.1832 26.0499 35.1832C27.0392 35.1832 28.0285 35.1789 29.0178 35.1703C30.007 35.1617 30.9963 35.1467 31.9856 35.1294C32.977 35.1101 33.9685 35.0864 34.9577 35.0585C35.9513 35.0327 36.9471 34.9982 37.9407 34.9595C38.9407 34.923 39.9408 34.8799 40.9365 34.8326C41.9431 34.7853 42.9474 34.7315 43.9518 34.6756C44.9648 34.6175 45.9778 34.5552 46.9886 34.4863" stroke="#FFE4E1" stroke-width="1.45" stroke-miterlimit="10"/>
<path d="M14.2646 40.7734C15.1375 40.8486 16.0126 40.9175 16.8876 40.9777C17.7304 41.0379 18.5774 41.0874 19.4244 41.1326C20.2477 41.1756 21.0689 41.2143 21.8922 41.2423C22.6983 41.2724 23.5044 41.296 24.3126 41.3132C25.1079 41.3304 25.9054 41.3412 26.7007 41.3455C27.4917 41.3498 28.2827 41.3498 29.0737 41.3412C29.8647 41.3348 30.6557 41.3197 31.4467 41.3003C32.242 41.281 33.0373 41.2552 33.8326 41.2229C34.6386 41.1928 35.4447 41.1541 36.2508 41.1089C37.0741 41.0637 37.8975 41.0121 38.7186 40.954C39.5635 40.8938 40.4084 40.8271 41.2511 40.7519C42.1261 40.6744 42.999 40.5905 43.8698 40.498" stroke="#FFE4E1" stroke-width="1.45" stroke-miterlimit="10"/>
<path d="M25.4443 47.4772H25.4465C25.6814 47.4837 25.9163 47.488 26.1534 47.4923C26.3711 47.4966 26.591 47.5009 26.8086 47.503C27.0134 47.5073 27.2138 47.5095 27.4186 47.5095C27.6126 47.5095 27.8065 47.5116 28.0005 47.5095C28.188 47.5116 28.3777 47.5095 28.5674 47.5095C28.7549 47.5095 28.9402 47.5095 29.1277 47.5073C29.3152 47.5052 29.5006 47.503 29.6881 47.4987C29.8756 47.4987 30.0653 47.4944 30.255 47.488C30.4489 47.488 30.6429 47.4815 30.8369 47.4751C31.0416 47.4708 31.2421 47.4643 31.4468 47.4579C31.6645 47.4514 31.8822 47.4428 32.102 47.4342C32.337 47.4256 32.5741 47.417 32.809 47.4062H32.8111" stroke="#FFE4E1" stroke-width="1.45" stroke-miterlimit="10"/>
</g>
<defs>
<filter id="filter0_d_757_20106" x="0" y="0" width="58" height="58" filterUnits="userSpaceOnUse" color-interpolation-filters="sRGB">
<feFlood flood-opacity="0" result="BackgroundImageFix"/>
<feColorMatrix in="SourceAlpha" type="matrix" values="0 0 0 0 0 0 0 0 0 0 0 0 0 0 0 0 0 0 127 0" result="hardAlpha"/>
<feOffset/>
<feGaussianBlur stdDeviation="5"/>
<feComposite in2="hardAlpha" operator="out"/>
<feColorMatrix type="matrix" values="0 0 0 0 0 0 0 0 0 0 0 0 0 0 0 0 0 0 0.25 0"/>
<feBlend mode="normal" in2="BackgroundImageFix" result="effect1_dropShadow_757_20106"/>
<feBlend mode="normal" in="SourceGraphic" in2="effect1_dropShadow_757_20106" result="shape"/>
</filter>
<clipPath id="clip0_757_20106">
<rect width="38" height="38" fill="white" transform="translate(10 10)"/>
</clipPath>
</defs>
</svg>
