<svg width="58" height="58" viewBox="0 0 58 58" fill="none" xmlns="http://www.w3.org/2000/svg">
<g clip-path="url(#clip0_344_34159)" filter="url(#filter0_d_344_34159)">
<path d="M28.7852 10.1961C39.1909 10.0994 47.7065 18.4406 47.8035 28.8251C47.9005 39.2097 39.5422 47.7079 29.1365 47.8047" stroke="#C6EBC5" stroke-width="1.82" stroke-miterlimit="10"/>
<path d="M28.7852 10.1957C35.723 10.1312 41.426 18.4982 41.5208 28.8827C41.6178 39.2673 36.0722 47.7397 29.1343 47.8042" stroke="#C6EBC5" stroke-width="1.7" stroke-miterlimit="10"/>
<path d="M28.7852 10.1954C32.253 10.1631 35.1433 18.556 35.2403 28.9405C35.3373 39.3251 32.6022 47.7717 29.1343 47.8018" stroke="#C6EBC5" stroke-width="1.58" stroke-miterlimit="10"/>
<path d="M28.7852 10.1953C28.7852 10.1953 28.8627 18.6139 28.9597 28.9985C29.0567 39.3831 29.1343 47.8017 29.1343 47.8017" stroke="#C6EBC5" stroke-width="1.46" stroke-miterlimit="10"/>
<path d="M28.7842 10.1953C25.3164 10.2276 22.5813 18.672 22.6783 29.0566C22.7753 39.4411 25.6655 47.834 29.1334 47.8017" stroke="#C6EBC5" stroke-width="1.33" stroke-miterlimit="10"/>
<path d="M28.7842 10.1953C21.8463 10.2598 16.3007 18.7301 16.3977 29.1168C16.4947 39.5014 22.1976 47.8684 29.1334 47.8038" stroke="#C6EBC5" stroke-width="1.21" stroke-miterlimit="10"/>
<path d="M28.785 10.1973C18.3793 10.2941 10.021 18.7923 10.118 29.1768C10.215 39.5614 18.7284 47.9026 29.1363 47.8058" stroke="#C6EBC5" stroke-width="1.09" stroke-miterlimit="10"/>
<path d="M25.1035 10.5896H25.1057C25.3406 10.5788 25.5777 10.5702 25.8126 10.5616C26.0303 10.553 26.2501 10.5444 26.47 10.5379C26.6747 10.5315 26.8773 10.525 27.0821 10.5207C27.2761 10.5143 27.47 10.51 27.6662 10.5078C27.8537 10.5035 28.0433 10.5014 28.233 10.4971C28.4184 10.4949 28.6059 10.4928 28.7912 10.4906C28.9766 10.4885 29.1641 10.4863 29.3494 10.4863C29.5391 10.4863 29.7266 10.4863 29.9163 10.4863C30.1103 10.4863 30.3042 10.4863 30.5004 10.4885C30.7051 10.4885 30.9077 10.4906 31.1125 10.4949C31.328 10.4949 31.5457 10.5014 31.7612 10.5057C31.9983 10.51 32.2354 10.5164 32.4746 10.5229" stroke="#C6EBC5" stroke-width="1.45" stroke-miterlimit="10"/>
<path d="M14.0508 17.5018C14.9215 17.4094 15.7944 17.3276 16.6695 17.2502C17.5122 17.1749 18.3549 17.1082 19.2019 17.048C20.0231 16.9899 20.8464 16.9362 21.6697 16.8931C22.4758 16.848 23.2819 16.8092 24.088 16.777C24.8833 16.7469 25.6786 16.7211 26.4739 16.7017C27.2649 16.6823 28.0559 16.6694 28.8469 16.6608C29.6379 16.6544 30.4289 16.6522 31.2199 16.6565C32.0152 16.6608 32.8126 16.6716 33.6079 16.6888C34.414 16.706 35.2201 16.7275 36.0283 16.7576C36.8516 16.7877 37.675 16.8243 38.5004 16.8695C39.3475 16.9125 40.1924 16.9641 41.0351 17.0243C41.9101 17.0846 42.7852 17.1534 43.6581 17.2287" stroke="#C6EBC5" stroke-width="1.45" stroke-miterlimit="10"/>
<path d="M10.9316 23.5178C11.9425 23.449 12.9555 23.3845 13.9706 23.3264C14.975 23.2683 15.9793 23.2167 16.9859 23.1694C17.9838 23.1221 18.9817 23.079 19.9817 23.0425C20.9753 23.0038 21.9689 22.9693 22.9647 22.9435C23.9561 22.9156 24.9454 22.8919 25.9368 22.8747C26.9261 22.8553 27.9154 22.8403 28.9046 22.8317C29.8939 22.8231 30.8832 22.8166 31.8725 22.8188C32.8639 22.8188 33.8554 22.8231 34.8468 22.8338C35.8425 22.8424 36.8361 22.8575 37.8297 22.8769C38.8298 22.8962 39.8298 22.9199 40.8299 22.95C41.8364 22.9779 42.8429 23.0124 43.8473 23.0532C44.8624 23.0919 45.8776 23.135 46.8884 23.1866" stroke="#C6EBC5" stroke-width="1.45" stroke-miterlimit="10"/>
<path d="M10.1191 29.1758C11.1645 29.1672 12.2119 29.1564 13.2594 29.1457C14.3047 29.1371 15.3522 29.1263 16.3997 29.1156C17.445 29.1048 18.4925 29.0962 19.5399 29.0855C20.5853 29.0747 21.6327 29.0661 22.6802 29.0554C23.7277 29.0446 24.773 29.036 25.8205 29.0252C26.8679 29.0145 27.9133 29.0059 28.9607 28.9951C30.0082 28.9844 31.0557 28.9758 32.101 28.965C33.1463 28.9543 34.1938 28.9457 35.2413 28.9349C36.2887 28.9241 37.3362 28.9155 38.3815 28.9048C39.4311 28.894 40.4765 28.8854 41.5218 28.8747C42.5671 28.8639 43.6189 28.8553 44.662 28.8446C45.7117 28.8338 46.757 28.8252 47.8023 28.8145" stroke="#C6EBC5" stroke-width="1.45" stroke-miterlimit="10"/>
<path d="M11.0371 34.8154C12.0501 34.867 13.0631 34.9101 14.0782 34.9488C15.0826 34.9896 16.0891 35.0241 17.0956 35.052C18.0935 35.0821 19.0936 35.1058 20.0937 35.1251C21.0872 35.1467 22.083 35.1617 23.0766 35.1682C24.068 35.1789 25.0595 35.1832 26.0509 35.1832C27.0402 35.1832 28.0295 35.1789 29.0187 35.1703C30.008 35.1617 30.9973 35.1467 31.9866 35.1294C32.978 35.1101 33.9694 35.0864 34.9587 35.0585C35.9523 35.0327 36.9481 34.9982 37.9417 34.9595C38.9417 34.923 39.9418 34.8799 40.9375 34.8326C41.944 34.7853 42.9484 34.7315 43.9528 34.6756C44.9658 34.6175 45.9787 34.5552 46.9896 34.4863" stroke="#C6EBC5" stroke-width="1.45" stroke-miterlimit="10"/>
<path d="M14.2656 40.7734C15.1385 40.8486 16.0136 40.9175 16.8886 40.9777C17.7313 41.0379 18.5784 41.0874 19.4254 41.1326C20.2487 41.1756 21.0699 41.2143 21.8932 41.2423C22.6993 41.2724 23.5054 41.296 24.3136 41.3132C25.1089 41.3304 25.9064 41.3412 26.7017 41.3455C27.4927 41.3498 28.2837 41.3498 29.0747 41.3412C29.8656 41.3348 30.6566 41.3197 31.4476 41.3003C32.2429 41.281 33.0382 41.2552 33.8335 41.2229C34.6396 41.1928 35.4457 41.1541 36.2518 41.1089C37.0751 41.0637 37.8984 41.0121 38.7196 40.954C39.5645 40.8938 40.4093 40.8271 41.2521 40.7519C42.1271 40.6744 43 40.5905 43.8707 40.498" stroke="#C6EBC5" stroke-width="1.45" stroke-miterlimit="10"/>
<path d="M25.4453 47.4772H25.4475C25.6824 47.4837 25.9173 47.488 26.1544 47.4923C26.3721 47.4966 26.5919 47.5009 26.8096 47.503C27.0144 47.5073 27.2148 47.5095 27.4196 47.5095C27.6135 47.5095 27.8075 47.5116 28.0015 47.5095C28.189 47.5116 28.3787 47.5095 28.5683 47.5095C28.7558 47.5095 28.9412 47.5095 29.1287 47.5073C29.3162 47.5052 29.5016 47.503 29.6891 47.4987C29.8766 47.4987 30.0663 47.4944 30.2559 47.488C30.4499 47.488 30.6439 47.4815 30.8379 47.4751C31.0426 47.4708 31.2431 47.4643 31.4478 47.4579C31.6655 47.4514 31.8832 47.4428 32.103 47.4342C32.3379 47.4256 32.575 47.417 32.81 47.4062H32.8121" stroke="#C6EBC5" stroke-width="1.45" stroke-miterlimit="10"/>
</g>
<defs>
<filter id="filter0_d_344_34159" x="0" y="0" width="58" height="58" filterUnits="userSpaceOnUse" color-interpolation-filters="sRGB">
<feFlood flood-opacity="0" result="BackgroundImageFix"/>
<feColorMatrix in="SourceAlpha" type="matrix" values="0 0 0 0 0 0 0 0 0 0 0 0 0 0 0 0 0 0 127 0" result="hardAlpha"/>
<feOffset/>
<feGaussianBlur stdDeviation="5"/>
<feComposite in2="hardAlpha" operator="out"/>
<feColorMatrix type="matrix" values="0 0 0 0 0 0 0 0 0 0 0 0 0 0 0 0 0 0 0.25 0"/>
<feBlend mode="normal" in2="BackgroundImageFix" result="effect1_dropShadow_344_34159"/>
<feBlend mode="normal" in="SourceGraphic" in2="effect1_dropShadow_344_34159" result="shape"/>
</filter>
<clipPath id="clip0_344_34159">
<rect width="38" height="38" fill="white" transform="translate(10 10)"/>
</clipPath>
</defs>
</svg>
